nColumns=19
nRows=51
DataType=double
version=3
OpenSimVersion=4.1
endheader
time	ground_force_1_vx	ground_force_1_vy	ground_force_1_vz	ground_force_1_px	ground_force_1_py	ground_force_1_pz	ground_force_1_mx	ground_force_1_my	ground_force_1_mz	ground_force_2_vx	ground_force_2_vy	ground_force_2_vz	ground_force_2_px	ground_force_2_py	ground_force_2_pz	ground_force_2_mx	ground_force_2_my	ground_force_2_mz
0.008333	0	0	0	0.00100233	0	-0.000310849	0	0	0	0	0	0	0.00100233	0	-0.000310849	0	0	0
0.016667	0	0	0	0.00100233	0	-0.000310849	0	0	0	0	0	0	0.00100233	0	-0.000310849	0	0	0
0.025	0	0	0	0.00100233	0	-0.00031085	0	0	0	0	0	0	0.00100233	0	-0.00031085	0	0	0
0.033333	0	0	0	0.00100233	0	-0.000310852	0	0	0	0	0	0	0.00100233	0	-0.000310852	0	0	0
0.041667	0	0	0	0.00100232	0	-0.000310854	0	0	0	0	0	0	0.00100232	0	-0.000310854	0	0	0
0.05	0	0	0	0.00100232	0	-0.000310857	0	0	0	0	0	0	0.00100232	0	-0.000310857	0	0	0
0.058333	0	0	0	0.00100231	0	-0.000310861	0	0	0	0	0	0	0.00100231	0	-0.00031086	0	0	0
0.066667	0	0	0	0.0010023	0	-0.000310865	0	0	0	0	0	0	0.00100231	0	-0.000310864	0	0	0
0.075	0	0	0	0.0010023	0	-0.00031087	0	0	0	0	0	0	0.0010023	0	-0.000310869	0	0	0
0.083333	0	0	0	0.00100229	0	-0.000310875	0	0	0	0	0	0	0.00100229	0	-0.000310875	0	0	0
0.091667	0	0	0	0.00100228	0	-0.000310881	0	0	0	0	0	0	0.00100228	0	-0.000310881	0	0	0
0.1	-0.849772	11.5327	-0.516351	0.704357	0	-0.143826	-0	0.661179	-0	0	0	0	0.00100227	0	-0.000310887	0	0	0
0.108333	-7.27872	28.3292	-4.41397	0.862927	0	-0.270173	-0	0.550959	-0	0	0	0	0.00100225	0	-0.000310894	0	0	0
0.116667	-28.2726	81.2122	-10.1389	0.914264	0	-0.33414	-0	0.270118	-0	0	0	0	0.00100224	0	-0.000310902	0	0	0
0.125	-68.0551	219.388	-15.0853	0.924286	0	-0.355543	0	-0.498948	0	0	0	0	0.00100223	0	-0.000310911	0	0	0
0.133333	-116.838	492.353	-13.8588	0.926223	0	-0.360454	0	-1.88466	0	0	0	0	0.00100221	0	-0.00031092	0	0	0
0.141667	-153.453	865.621	-1.93534	0.923724	0	-0.35945	0	-3.70491	0	0	0	0	0.00100219	0	-0.000310929	0	0	0
0.15	-170.903	1187.56	16.7193	0.915461	0	-0.356687	0	-5.48596	0	0	0	0	0.00100218	0	-0.00031094	0	0	0
0.158333	-189.484	1350.32	27.574	0.901616	0	-0.354126	0	-6.64719	0	0	0	0	0.00100216	0	-0.000310951	0	0	0
0.166667	-221.335	1407.68	18.5193	0.882368	0	-0.352984	0	-6.76945	0	0	0	0	0.00100214	0	-0.000310962	0	0	0
0.175	-242.262	1463.84	-4.84322	0.856838	0	-0.352688	0	-5.77812	0	0	0	0	0.00100212	0	-0.000310974	0	0	0
0.183333	-228.584	1557.8	-24.3661	0.825901	0	-0.350856	0	-3.92077	0	0	0	0	0.0010021	0	-0.000310987	0	0	0
0.191667	-185.713	1660.75	-30.0189	0.793596	0	-0.347101	0	-1.59118	0	0	0	0	0.00100207	0	-0.000311	0	0	0
0.2	-129.427	1726.59	-28.4828	0.762648	0	-0.343511	-0	0.832221	-0	0	0	0	0.00100205	0	-0.000311014	0	0	0
0.208333	-67.7632	1731.96	-30.2615	0.731931	0	-0.341608	-0	3.03083	-0	0	0	0	0.00100202	0	-0.000311029	0	0	0
0.216667	-2.23566	1682.33	-35.4837	0.699431	0	-0.34068	-0	4.72221	-0	0	0	0	0.001002	0	-0.000311044	0	0	0
0.225	63.7479	1594.05	-36.4036	0.665103	0	-0.339289	-0	5.66975	-0	0	0	0	0.00100197	0	-0.00031106	0	0	0
0.233333	125.289	1476.04	-28.7543	0.629805	0	-0.337397	-0	5.74783	-0	0	0	0	0.00100194	0	-0.000311076	0	0	0
0.241667	177.672	1330.14	-15.2729	0.594453	0	-0.336106	-0	5.00135	-0	0	0	0	0.00100191	0	-0.000311093	0	0	0
0.25	214.241	1157.47	-0.510804	0.560162	0	-0.335934	-0	3.64419	-0	0	0	0	0.00100188	0	-0.000311111	0	0	0
0.258333	231.493	963.217	12.7958	0.527642	0	-0.336161	-0	1.99754	-0	0	0	0	0.00100185	0	-0.000311129	0	0	0
0.266667	231.411	758.269	22.9462	0.497084	0	-0.335785	-0	0.401461	-0	0	0	0	0.00100182	0	-0.000311148	0	0	0
0.275	215.735	557.753	28.4959	0.468376	0	-0.334	0	-0.869127	0	0	0	0	0.00100179	0	-0.000311167	0	0	0
0.283333	182.369	377.526	28.7972	0.441256	0	-0.33003	0	-1.66263	0	0	0	0	0.00100176	0	-0.000311187	0	0	0
0.291667	133.91	230.465	24.4906	0.414701	0	-0.323437	0	-1.97025	0	0	0	0	0.00100172	0	-0.000311207	0	0	0
0.3	82.876	124.418	17.5979	0.387709	0	-0.31364	0	-1.90443	0	0	0	0	0.00100168	0	-0.000311228	0	0	0
0.308333	42.9117	59.1797	10.9239	0.373858	0	-0.294115	0	-1.64513	0	0	0	0	0.00100165	0	-0.00031125	0	0	0
0.316667	19.2596	26.2168	6.46958	0.445263	0	-0.237953	0	-1.37254	0	0	0	0	0.00100161	0	-0.000311272	0	0	0
0.325	8.24006	12.6686	4.29318	0.69133	0	-0.116536	0	-1.21045	0	0	0	0	0.00100157	0	-0.000311295	0	0	0
0.333333	0	0	0	0.00100151	0	-0.000311327	0	0	0	0	0	0	0.00100153	0	-0.000311318	0	0	0
0.341667	0	0	0	0.00100146	0	-0.000311351	0	0	0	0	0	0	0.00100149	0	-0.000311342	0	0	0
0.35	0	0	0	0.00100142	0	-0.000311376	0	0	0	0	0	0	0.00100145	0	-0.000311366	0	0	0
0.358333	0	0	0	0.00100138	0	-0.000311401	0	0	0	0	0	0	0.00100141	0	-0.000311391	0	0	0
0.366667	0	0	0	0.00100133	0	-0.000311427	0	0	0	0	0	0	0.00100136	0	-0.000311417	0	0	0
0.375	0	0	0	0.00100129	0	-0.000311454	0	0	0	0	0	0	0.00100132	0	-0.000311443	0	0	0
0.383333	0	0	0	0.00100124	0	-0.000311481	0	0	0	0	0	0	0.00100127	0	-0.00031147	0	0	0
0.391667	0	0	0	0.00100119	0	-0.000311508	0	0	0	0	0	0	0.00100123	0	-0.000311497	0	0	0
0.4	0	0	0	0.00100114	0	-0.000311537	0	0	0	-1.87053	18.1577	-1.71261	0.796663	0	-0.227162	0	-0.31109	0
0.408333	0	0	0	0.00100109	0	-0.000311565	0	0	0	-15.8317	43.5706	-4.60352	0.850721	0	-0.365114	0	-0.365178	0
0.416667	0	0	0	0.00100104	0	-0.000311594	0	0	0	-45.6596	119.901	-6.57345	0.905849	0	-0.425212	0	-0.655248	0
0.425	0	0	0	0.00100099	0	-0.000311624	0	0	0	-92.0317	297.919	-3.87777	0.934795	0	-0.43589	0	-1.06916	0
